REM DATE 2015
REM GENRE Anime
TITLE "カタラレズトモ"
FILE "LACM-14397.flac" WAVE
  TRACK 01 AUDIO
    TITLE "カタラレズトモ"
    PERFORMER "ZAQ"
    INDEX 01 00:00:00
  TRACK 02 AUDIO
    TITLE "switchback story"
    PERFORMER "ZAQ"
    INDEX 00 04:23:17
    INDEX 01 04:25:57
  TRACK 03 AUDIO
    TITLE "KURUIZAQ"
    PERFORMER "ZAQ"
    INDEX 00 08:20:46
    INDEX 01 08:23:26
  TRACK 04 AUDIO
    TITLE "カタラレズトモ (Off Vocal)"
    PERFORMER "ZAQ"
    INDEX 00 12:11:40
    INDEX 01 12:14:58
